<svg xmlns="http://www.w3.org/2000/svg" xmlns:xlink="http://www.w3.org/1999/xlink" version="1.1" x="0px" y="0px" viewBox="0 0 100 125" enable-background="new 0 0 100 100" xml:space="preserve"><g><g><path fill="#FF0" d="M78.534,39.719c-0.268-14.512-12.148-26.236-26.722-26.236c-12.194,0-22.5,8.209-25.7,19.389h-1.881    V14.484h-2v18.389h-3.636V68.66h4.003l-0.378,4.388L44.26,86.516h15.106l22.038-13.468L78.534,39.719z M51.813,15.484    c13.279,0,24.143,10.52,24.707,23.663H27.105C27.669,26.003,38.534,15.484,51.813,15.484z M20.596,66.66V34.873h5.02    c-0.32,1.572-0.495,3.196-0.525,4.854L22.771,66.66H20.596z M39,80.958L24.32,71.987l1.501-17.436    C29.755,57.53,40.665,67.139,39,80.958z M57.994,54.71v29.807h-6.081h-6.372V54.71L30.78,48.451v-3.344h20.942h0.091h20.942v3.344    L57.994,54.71z M59.994,83.789V56.034l14.761-6.258v-6.668H51.813h-0.091H28.78v6.668l14.761,6.258v27.699l-2.684-1.64    c1.181-7.611-1.032-15.195-6.443-21.978c-3.413-4.278-7.065-6.984-8.391-7.897l0.953-11.071H76.65l0.959,11.134    c-1.393,0.968-4.96,3.647-8.301,7.835c-5.398,6.767-7.613,14.332-6.451,21.925L59.994,83.789z M77.81,54.619l1.495,17.368    l-14.592,8.918C63.094,67.217,73.808,57.67,77.81,54.619z"/><path fill="#FF0" d="M60.403,25.411c-0.391-0.391-1.023-0.391-1.414,0s-0.391,1.023,0,1.414l5.09,5.091    c0.195,0.195,0.451,0.293,0.707,0.293s0.512-0.098,0.707-0.293c0.391-0.391,0.391-1.023,0-1.414L60.403,25.411z"/><path fill="#FF0" d="M56.027,26.844c-0.391-0.391-1.023-0.391-1.414,0s-0.391,1.023,0,1.414l3.426,3.426    c0.195,0.195,0.451,0.293,0.707,0.293s0.512-0.098,0.707-0.293c0.391-0.391,0.391-1.023,0-1.414L56.027,26.844z"/></g></g></svg>