<svg xmlns="http://www.w3.org/2000/svg" xmlns:xlink="http://www.w3.org/1999/xlink" version="1.1" x="0px" y="0px" viewBox="0 0 100 125" enable-background="new 0 0 100 100" xml:space="preserve"><g><path fill="#44CF6C" d="M15.672,30.453 M11.844,49.833c0,20.58,16.969,37.321,37.412,37.321c20.557,0,37.234-16.96,37.234-37.321   c0-20.58-16.743-37.323-37.323-37.323C30.833,12.51,11.844,27.25,11.844,49.833z M15.954,61.857h7.465   c0.598,2.375,1.378,4.665,2.315,6.834h-6.413C17.967,66.556,16.83,64.27,15.954,61.857z M79.907,32.466   c2.757,4.86,4.392,10.432,4.558,16.367h-8.073c-0.093-4.965-0.879-9.759-2.348-14.269c0.189-0.66,0.292-1.362,0.293-2.099H79.907z    M62.636,68.691c0.517-2.163,0.946-4.453,1.276-6.834H72.9c-0.618,2.388-1.413,4.687-2.384,6.834H62.636z M39.187,68.691   c-0.472-2.155-0.86-4.45-1.16-6.834h23.863c-0.34,2.388-0.777,4.684-1.309,6.834H39.187z M26.812,60.857   c-0.718-3.232-1.103-6.599-1.167-10.023h8.16c0.04,3.42,0.262,6.782,0.669,10.023H26.812z M61.83,37.236   c0.548,3.713,0.84,7.608,0.879,11.598H37.303c0.057-5.743,0.596-11.373,1.576-16.367h17.662   C57.808,34.216,59.612,35.974,61.83,37.236z M64.004,50.834c-0.04,3.423-0.281,6.788-0.73,10.023H36.487   c-0.417-3.234-0.642-6.6-0.683-10.023H64.004z M66.004,50.834h10.383c-0.073,3.427-0.508,6.793-1.321,10.023h-9.776   C65.727,57.615,65.965,54.253,66.004,50.834z M72.629,37.076c0.021-0.021,0.037-0.047,0.058-0.069   c1.056,3.771,1.625,7.736,1.705,11.827h-9.683c-0.035-3.631-0.281-7.182-0.729-10.601C66.74,39.251,70.32,39.463,72.629,37.076z    M36.845,32.466c-0.958,5.023-1.486,10.642-1.541,16.367H23.946c0.117-5.748,1.226-11.383,3.246-16.367H36.845z M78.387,50.834   h6.078c-0.098,3.49-0.702,6.854-1.745,10.023h-5.604C77.892,57.616,78.316,54.254,78.387,50.834z M71.191,35.685   c-2.18,2.253-7.243,1.534-11.307-2.397c-3.818-3.692-5.148-8.764-2.773-11.22c2.288-2.366,7.288-1.489,11.307,2.397   C72.234,28.156,73.504,33.294,71.191,35.685z M58.249,19.122c-0.782-1.327-1.632-2.463-2.531-3.405   c1.923,0.722,3.776,1.764,5.534,3.114C60.276,18.754,59.443,18.751,58.249,19.122z M55.87,31.466H37.772   c0.932-3.958,2.177-7.498,3.625-10.267h13.838C53.488,23.486,53.382,27.417,55.87,31.466z M35.468,20.2   c2.503-2.277,5.235-3.894,8.109-4.804c-1.068,1.256-2.053,2.878-3.064,4.804H35.468z M35.578,21.2h3.584   c-1.395,2.888-2.552,6.333-3.446,10.267h-6.539C30.783,27.566,33.102,23.915,35.578,21.2z M21.946,48.833h-8.077   c0.166-5.936,1.801-11.507,4.557-16.367h6.628C23.125,37.499,22.058,43.114,21.946,48.833z M23.645,50.834   c0.062,3.419,0.439,6.781,1.129,10.023h-9.159c-1.044-3.169-1.648-6.533-1.746-10.023H23.645z M27.922,68.691   c-0.964-2.121-1.813-4.488-2.432-6.834h10.52c0.292,2.377,0.674,4.668,1.134,6.834H27.922z M36.121,69.691   c1.598,6.237,3.877,11.034,6.55,14.009c-5.198-2.276-9.761-7.157-12.911-14.009H36.121z M38.191,69.691h23.245   c-2.72,9.479-7.235,15.456-11.909,15.456C44.672,85.147,40.694,79.111,38.191,69.691z M63.517,69.691h8.208   c-3.763,7.225-9.309,12.271-15.614,14.369C59.137,81.122,61.725,76.192,63.517,69.691z M72.689,68.691   c0.923-2.167,1.691-4.456,2.28-6.834h7.41c-0.876,2.412-2.013,4.698-3.367,6.834H72.689z M79.328,31.466h-5.044   c-0.528-4.889-4.225-8.567-6.724-10.267h2.254C73.624,23.955,76.869,27.443,79.328,31.466z M68.355,20.2h-2.501   c-0.07-0.036-0.142-0.074-0.212-0.109c-1.119-1.165-2.29-2.2-3.504-3.103C64.326,17.855,66.406,18.934,68.355,20.2z M56.441,20.021   c-0.081,0.059-0.164,0.116-0.242,0.179H42.785c2.134-3.861,3.825-5.689,6.382-5.689C51.761,14.51,54.316,16.472,56.441,20.021z    M32.578,20.2h-2.6c1.953-1.269,4.038-2.349,6.23-3.217C35.02,17.866,33.676,19.066,32.578,20.2z M28.52,21.2h4.378   c-2.376,2.885-4.35,6.332-5.88,10.267h-8.011C21.465,27.443,24.71,23.955,28.52,21.2z M19.972,69.691h7.587   c2.6,5.991,6.228,10.651,10.446,13.647C30.606,80.867,24.288,76.018,19.972,69.691z M64.81,81.492   c3.643-2.935,6.788-6.927,9.17-11.801h4.383C74.946,74.698,70.276,78.78,64.81,81.492z"/><path fill="#44CF6C" d="M62.667,25.638c-0.768,0-1.454,0.273-1.935,0.77c-1.205,1.246-0.834,3.493,0.844,5.116   c0.947,0.917,2.117,1.442,3.208,1.442c0.767,0,1.453-0.273,1.934-0.77c1.205-1.247,0.835-3.494-0.843-5.116   C64.928,26.164,63.758,25.638,62.667,25.638z M65.28,30.806c-0.128,0.133-0.341,0.161-0.496,0.161   c-0.439,0-1.147-0.231-1.817-0.879c-0.949-0.918-1.105-1.969-0.797-2.288c0.128-0.133,0.341-0.161,0.497-0.161   c0.438,0,1.147,0.231,1.817,0.879C65.434,29.436,65.59,30.486,65.28,30.806z"/></g></svg>