<svg xmlns="http://www.w3.org/2000/svg" width="500" height="500" viewBox="0 0 500 500"><path fill="#FF221E" d="M253.443 316c-15.57 0-28.31 12.74-28.31 28.31V416.5c0 1.416.708 2.123 2.124 2.123h51.663c1.416 0 2.122-.706 2.122-2.122V344.31c.71-15.57-12.028-28.31-27.6-28.31z"/><path fill="#FF221E" d="M409.14 423.574H308.647c-4.248 0-7.08-2.83-7.08-7.078v-71.48c0-26.894-21.938-48.124-48.123-48.124-26.187 0-48.125 21.938-48.125 48.125v71.48c0 4.246-2.83 7.077-7.077 7.077H64.484c-3.538 0-7.077-2.83-7.077-7.078v-1.414-8.493c0-3.54 3.54-7.08 7.077-7.08 4.247 0 7.077 3.54 7.077 7.08v2.123h120.312V344.31c0-34.678 28.31-62.277 62.28-62.277s62.277 28.308 62.277 62.278v64.403h86.34c0-115.36-74.31-194.623-165.604-194.623-56.617 0-108.28 21.94-138.712 81.387-2.123 3.54-6.37 4.955-9.2 2.832-3.54-2.124-4.954-6.37-2.83-9.2 33.26-65.11 89.88-89.173 151.45-89.173 99.08 0 179.76 86.34 179.76 209.485v7.075c-1.415 3.538-4.955 7.077-8.493 7.077z"/><path fill="#FF221E" d="M308.646 423.574H198.24c-4.245 0-7.076-2.83-7.076-7.078v-71.48c0-34.68 28.31-62.278 62.28-62.278s62.275 28.31 62.275 62.28v71.478c0 3.54-2.828 7.078-7.074 7.078zM205.318 409.42h96.25V345.02c0-26.894-21.94-48.125-48.124-48.125-26.187 0-48.125 21.94-48.125 48.125v64.403h-.002zM64.483 413.666H17.066c-4.247 0-7.077-2.83-7.077-7.077V292.645c0-4.246 2.83-7.078 7.076-7.078H90.67c2.123 0 4.954 1.416 6.37 3.54s1.414 4.954 0 7.075c-16.986 33.265-26.186 71.48-26.186 110.404.706 4.248-2.833 7.08-6.37 7.08zm-40.34-14.155H56.7c1.415-35.386 9.2-69.355 22.646-99.787H24.144v99.788zM445.233 413.666H408.43c-3.537 0-7.074-2.83-7.074-7.077 0-39.634-9.2-77.85-26.187-111.113-1.417-2.123-.71-4.95 0-7.074 1.414-2.125 3.537-3.54 6.368-3.54h63.693c4.247 0 7.078 2.83 7.078 7.077v113.94c.004 4.955-2.828 7.786-7.075 7.786zM415.51 399.51h22.646v-99.787h-45.292c14.154 30.43 21.938 65.11 22.646 99.788z"/><path fill="#FF221E" d="M195.41 347.848H78.638c-4.246 0-7.077-2.83-7.077-7.076s2.83-7.076 7.077-7.076H195.41c4.246 0 7.077 2.83 7.077 7.076s-2.83 7.076-7.076 7.076zM394.278 346.434h-83.51c-4.246 0-7.077-2.832-7.077-7.076 0-4.248 2.832-7.08 7.077-7.08h83.51c4.248 0 7.08 2.832 7.08 7.08 0 4.244-2.832 7.076-7.08 7.076z"/><path fill="#FF221E" d="M75.807 336.523H21.312c-4.246 0-7.077-2.83-7.077-7.075 0-4.247 2.83-7.077 7.077-7.077h54.495c4.247 0 7.077 2.83 7.077 7.078 0 4.245-2.83 7.075-7.077 7.075zM416.22 296.186c-4.248 0-7.08-2.832-7.08-7.076v-66.526c0-4.246 2.832-7.077 7.08-7.077 4.244 0 7.075 2.83 7.075 7.077v66.526c0 3.536-2.83 7.076-7.076 7.076zM479.91 407.297c-4.244 0-7.076-2.83-7.076-7.078V226.83c0-4.248 2.832-7.08 7.077-7.08 4.248 0 7.08 2.832 7.08 7.08v173.39c0 4.246-2.832 7.077-7.08 7.077z"/><path fill="#FF221E" d="M478.497 254.43h-16.984c-4.247 0-7.08-2.83-7.08-7.077 0-4.246 2.833-7.077 7.08-7.077h16.984c4.246 0 7.077 2.83 7.077 7.077s-2.83 7.077-7.077 7.077zM433.203 254.43h-15.57c-4.246 0-7.076-2.83-7.076-7.077 0-4.246 2.83-7.077 7.077-7.077h15.57c4.245 0 7.075 2.83 7.075 7.077s-3.54 7.077-7.077 7.077z"/><path fill="#FF221E" d="M462.22 400.926h-16.985c-4.246 0-7.077-2.83-7.077-7.076v-94.127h-4.953c-4.247 0-7.077-2.83-7.077-7.076v-71.48c0-12.03 9.91-21.938 21.23-21.938 5.662 0 11.323 2.123 15.57 6.37 4.246 4.245 6.37 9.2 6.37 15.57v172.68c0 4.246-3.54 7.076-7.078 7.076zm-9.908-14.155h2.83V221.168c0-2.124-.71-3.54-2.123-4.955-1.416-1.415-3.54-2.123-4.955-2.123-4.245 0-7.077 3.538-7.077 7.784v63.694h4.954c4.247 0 7.078 2.832 7.078 7.076v94.127h-.708z"/><path fill="#FF221E" d="M447.356 211.967c-6.37 0-12.03-5.662-12.03-12.03V142.61c0-6.37 5.66-12.03 12.03-12.03 6.368 0 12.03 5.66 12.03 12.03v57.325c.003 6.37-4.952 12.032-12.03 12.032z"/><path fill="#FF221E" d="M447.356 150.395c-4.245 0-7.077-2.83-7.077-7.077V77.5c0-4.246 2.83-7.077 7.076-7.077 4.246 0 7.076 2.832 7.076 7.077v65.818c.002 4.247-2.828 7.077-7.076 7.077z"/><g><path fill="#FF221E" d="M459.39 82.455h-25.48a6.343 6.343 0 0 1-6.37-6.37c0-3.538 2.832-6.37 6.37-6.37h25.48c3.537 0 6.368 2.832 6.368 6.37 0 3.54-2.83 6.37-6.37 6.37z"/></g></svg>